<?xml version="1.0" encoding="UTF-8"?>
<!DOCTYPE svg PUBLIC "-//W3C//DTD SVG 1.1//EN" "http://www.w3.org/Graphics/SVG/1.1/DTD/svg11.dtd">
<!-- Creator: CorelDRAW 2019 (64-Bit) -->
<svg xmlns="http://www.w3.org/2000/svg" xml:space="preserve" width="46.5666mm" height="46.5666mm" version="1.1" style="shape-rendering:geometricPrecision; text-rendering:geometricPrecision; image-rendering:optimizeQuality; fill-rule:evenodd; clip-rule:evenodd"
viewBox="0 0 4656.66 4656.66"
 xmlns:xlink="http://www.w3.org/1999/xlink">
 <defs>
  <style type="text/css">
   <![CDATA[
    .fil0 {fill:#FEFEFE}
   ]]>
  </style>
 </defs>
 <g id="Слой_x0020_1">
  <metadata id="CorelCorpID_0Corel-Layer"/>
  <path class="fil0" d="M1848.92 3008.28l-2.43 875c-76.67,9.29 -917.78,8.79 -961.38,-3.05 -10.67,-130.11 -1.88,-761.32 -1.91,-944.83 -0.03,-158.04 0.35,-316.09 0.32,-474.13 -0.02,-79.03 -0.49,-158.03 -0.33,-237.07l0.01 -178.06c-0.06,-9.01 -0.57,-24.87 0.59,-33.23 1.92,-13.89 3.86,-12.45 7.04,-18.44 25.79,-33.18 459.41,-385.27 538.32,-450.3l714.07 -589.83c28.5,-24.14 62.57,-49.36 88.5,-72.57 28.17,-25.22 59.07,-51.54 89.29,-72.29 36.28,16.68 141.45,112.25 184.77,146.39l805.18 667.97c33.53,28.11 55.55,48.87 87.18,73.63 33.77,26.45 58.09,49.32 92.45,76.77l176.94 144.95c31.88,26.76 63.62,50.04 83.59,75.3 1,1.85 2.53,4.2 2.97,5.58 0.45,1.42 2.07,4.16 2.52,6.01 5.55,22.53 0.02,-10.51 2.51,14.52l-0.66 1388.94c-0.42,144.29 10.93,331.83 -1.66,470.59 -42.64,11.64 -886.38,12.45 -962.83,3.11l-1 -874.87c-13.36,-94.49 -93.27,-91.02 -192.56,-91.23 -93.16,-0.2 -186.25,0.03 -279.4,0.05 -93.15,0.02 -186.24,-0.32 -279.4,-0.08 -100.17,0.25 -178.5,-3.26 -192.69,91.17zm-581.01 -2053.82l200.4 0.29c1.9,50.58 1.25,101.23 1.33,151.86 0.08,55.03 11.46,100.57 -24.08,132.06l-178.38 135.54 0.73 -419.75zm1311.21 2180.98c0,181.67 -0.38,363.36 -0.15,545.03 0.11,90.45 -0.16,180.87 -0.19,271.31 -0.03,90.23 24.72,144.19 114.78,148.88 171.89,8.96 366.98,-1.36 541.85,-0.22 180.28,1.16 361.59,1.02 541.87,0.02 87.53,-0.49 167.35,3.34 191.26,-76.47 13.17,-43.94 5.56,-729.28 5.93,-809.19 1.15,-245.1 -12.25,-880.53 1.54,-1071.26l202.88 161.58c79.02,66.66 161.45,152.29 246.44,118.77 37.52,-14.8 68.84,-61.84 58.97,-119.34 -9.3,-54.26 -53.35,-77.54 -84.36,-102.04l-410.83 -333.91c-67.56,-55.25 -140.17,-111.12 -206.66,-166.1l-1236.83 -998.33c-170.08,-140.01 -203.2,-212.21 -348.06,-84.97l-509.65 419.09c-0.72,-163.13 40.62,-303.03 -145.51,-303.38 -424.4,-0.78 -493.72,-44.38 -493.13,176.96l-0.06 661.23c-77.31,62.03 -866.3,687.36 -885.04,738.22 -33.9,91.97 46.49,180.75 142.52,142.18 49.99,-20.09 317.11,-264.17 360.57,-280.52 6.9,529.56 0.07,1083.5 0.1,1617.55 0.01,299.21 -19.88,308.38 222.78,310.12l812.8 0.15c257.23,-1.27 360.98,46.49 360.2,-166.2l-0.29 -798.96 516.27 -0.2z"/>
 </g>
</svg>
