<?xml version="1.0" encoding="UTF-8"?>
<!DOCTYPE svg PUBLIC "-//W3C//DTD SVG 1.1//EN" "http://www.w3.org/Graphics/SVG/1.1/DTD/svg11.dtd">
<!-- Creator: CorelDRAW 2019 (64-Bit) -->
<svg xmlns="http://www.w3.org/2000/svg" xml:space="preserve" width="39.7932mm" height="43.1798mm" version="1.1" style="shape-rendering:geometricPrecision; text-rendering:geometricPrecision; image-rendering:optimizeQuality; fill-rule:evenodd; clip-rule:evenodd"
viewBox="0 0 3979.32 4317.98"
 xmlns:xlink="http://www.w3.org/1999/xlink">
 <defs>
  <style type="text/css">
   <![CDATA[
    .str0 {stroke:white;stroke-width:352.78;stroke-miterlimit:22.9256}
    .fil0 {fill:none}
   ]]>
  </style>
 </defs>
 <g id="Слой_x0020_1">
  <metadata id="CorelCorpID_0Corel-Layer"/>
  <path class="fil0 str0" d="M263.06 463l0 3393.04c0,68.26 35.47,135.85 68.85,172.4 30.68,33.6 109.83,76.63 172.4,76.63 108.06,0 158.73,-48.94 230.79,-88.28 258.75,-141.25 550.84,-322.3 814.42,-469.64l404.67 -233.47c37.08,-20.72 66.55,-38.1 103.16,-60.27l1421.25 -820.02c105.05,-63.15 214.36,-103.96 223.22,-267.18 2.19,-40.32 -16.07,-97.29 -29.82,-123.76 -48.05,-92.45 -173.75,-142.81 -277.1,-205.4 -193.04,-116.89 -417.43,-236.17 -611.91,-353.08 -68.46,-41.16 -133.85,-75.57 -202.33,-116.74l-1321.88 -763.74c-35.63,-20.52 -66.49,-39.87 -103.44,-60l-202.33 -116.73c-36.04,-19.63 -66.25,-37.94 -98.91,-56.74 -115.6,-66.55 -234.56,-156.05 -349.79,-156.05 -132.43,0 -241.25,117.08 -241.25,249.03z"/>
 </g>
</svg>
