<?xml version="1.0" encoding="UTF-8"?>
<!DOCTYPE svg PUBLIC "-//W3C//DTD SVG 1.1//EN" "http://www.w3.org/Graphics/SVG/1.1/DTD/svg11.dtd">
<!-- Creator: CorelDRAW 2019 (64-Bit) -->
<svg xmlns="http://www.w3.org/2000/svg" xml:space="preserve" width="103mm" height="100mm" version="1.1" style="shape-rendering:geometricPrecision; text-rendering:geometricPrecision; image-rendering:optimizeQuality; fill-rule:evenodd; clip-rule:evenodd"
viewBox="0 0 10300 10000"
 xmlns:xlink="http://www.w3.org/1999/xlink">
 <defs>
  <style type="text/css">
   <![CDATA[
    .fil0 {fill:#FEFEFE}
   ]]>
  </style>
 </defs>
 <g id="Слой_x0020_1">
  <metadata id="CorelCorpID_0Corel-Layer"/>
  <g id="_1650823707616">
   <path class="fil0" d="M4003.49 1387.29l0.21 1000c0.1,92.34 -4.78,138.53 41.07,198.03 94.45,122.59 376.28,136.96 374.92,-197.82 -1.28,-321.14 -4.12,-645.98 -0.14,-966.88 3.52,-284.84 94.8,-487.75 319.71,-648.72 305,-218.3 768.48,-144.52 1016.62,202.56 231.24,323.46 54.16,870.55 -138.59,1109.47 -147.35,182.66 -309.3,354.37 -490.27,477.13 -185.34,125.73 -388.81,264.1 -586.79,390.18 -345.58,220.07 -804.45,582.48 -1048.03,897.01 -411.43,531.25 -539.95,1236.4 -329.07,1896.48 90.03,281.84 300.91,637.71 509.6,834.75 98.2,92.73 211.4,192.38 331.69,269.1 399.32,254.66 944.6,409.82 1445,320.83 524,-93.19 1001.35,-345.74 1323.38,-774.47 175.36,-233.45 317.76,-485.33 394.69,-802.81 403.06,-1663.25 -1501.14,-2404.75 -2351.59,-1309.3 -47.43,61.1 -85.97,116.55 -120.54,179.05 -29.87,54.01 -75.04,148.46 -93.38,203.22 -90.68,270.72 -97.75,585.71 -3.03,876.84 81.11,249.3 372.57,692.66 595.88,662.56 91.39,-12.33 190.74,-106.17 178.26,-225.83 -10.95,-104.9 -110.68,-171.4 -179.79,-241.85 -385.69,-393.14 -323.26,-1148.77 283.73,-1459.45 384.07,-196.59 873.73,-74.66 1148.96,293.95 272.22,364.57 194.98,881.94 7.81,1262.34 -181.42,368.72 -456,619.79 -817.14,793.08 -393.17,188.68 -959.2,183.22 -1340.22,3.45 -233.74,-110.29 -318.39,-183.53 -481.56,-328.28 -137.56,-122.02 -252.05,-288.19 -342.73,-468.78 -252.47,-502.78 -221.73,-1108.61 72.71,-1585.88 21.68,-35.16 53.38,-76.28 81.93,-118.33 60.1,-88.51 129.07,-151.79 188.57,-211.38 330.52,-330.98 537.71,-451.44 908.39,-702.78 422.24,-286.3 548.69,-341.77 906.09,-704.99 371.42,-377.45 638.08,-1140.34 358.07,-1669.17 -72.59,-137.09 -155.85,-223.1 -251.76,-315.5 -418.28,-402.99 -1191.55,-403.41 -1600.54,56.82 -194.98,219.41 -312.14,440.96 -312.12,805.37z"/>
   <path class="fil0" d="M6286.7 8653.96c0,-584.55 -589.39,-835.32 -977.58,-610.67 -312.19,180.66 -443.19,605.75 -265.31,743.48 147.6,114.26 316.95,12.64 335.91,-154.86 44.03,-388.74 575.53,-320.17 479.21,151.12 -128.71,629.79 -1041.77,789.15 -1362.25,161.01 -86.15,-168.86 -77.21,-300.75 -77.21,-512.3 0.01,-218.78 9.37,-666.39 0.22,-867.39 -13.97,-307.07 -415.94,-309.7 -416.01,-10.39l-0.04 1044.45c-0.59,363.57 121.72,616.05 322.5,827.97 192.37,203.04 501.89,343.63 783.36,345.13 116.65,0.63 159.31,-1.32 260.8,-24.11 203.83,-45.81 79.13,-18.79 220.19,-68.1 132.17,-46.19 260.1,-142.75 342.58,-224.04 202.73,-199.8 353.63,-418.4 353.63,-801.3z"/>
   <path class="fil0" d="M10142.87 2376.49l0 -69.83c-28.48,-29.04 -14.79,-47.64 -42.52,-88.06 -15.98,-23.29 -44.34,-49.93 -68.87,-62.61 -79.55,-41.09 -169.58,-13.1 -235.08,17 -469.79,215.84 -758.58,274.21 -1239.15,404.46l-925.19 173.17c-156.62,17.37 -317.71,49.72 -472.5,73.13 -86.81,13.12 -166.09,12.81 -230.25,50.26 -53.55,31.26 -96.72,94.92 -95.77,179.47 0.83,74.95 42.39,143.65 92.77,173.21 83.57,48.99 138.23,29.66 239.54,17.2l1514.53 -264.62c239.89,-53.4 1283.75,-348.97 1412.12,-509.17 24.82,-30.99 30.87,-65.45 50.37,-93.61z"/>
   <path class="fil0" d="M142.87 7825.92l0 102.4 10.58 13.89c38.13,64.98 85.86,188.04 271.14,136.5 57.3,-15.93 100.83,-40.1 153.66,-66.73 123.96,-62.47 693.03,-248.62 838.16,-283.58 236.91,-57.07 475.58,-135.11 716.25,-170.45 124.45,-18.28 249.03,-48.28 371.94,-73.69 126.1,-26.06 241.41,-62.52 247.4,-208.44 10.15,-246.35 -262.03,-231.66 -432.62,-187.14 -67.8,17.71 -101.76,23.32 -184.61,38.18 -284.01,50.89 -775.73,175.21 -1071.27,269.99 -250.24,80.23 -404.02,124.62 -660.45,230.29 -96.36,39.71 -181.05,59.61 -232.06,153.95l-28.12 44.83z"/>
   <path class="fil0" d="M142.87 4557.21l0 96.62c43.83,27.67 32.03,185.63 244.12,157.88 98.22,-12.84 210.28,-78.34 298.53,-114.05 186.71,-75.54 415.17,-145.22 614.71,-209.52l651.84 -166.22c255.39,-60.3 545.71,-44.05 539.88,-290.56 -2.58,-109.5 -88.49,-204.49 -204.81,-206.26 -101.74,-1.55 -938.65,214.83 -995.48,231.52 -187.41,55.04 -1012.94,292.29 -1106.34,428.55 -28.89,42.15 -8.99,49.25 -42.45,72.04z"/>
   <path class="fil0" d="M10142.87 5670.47l0 -101.71c-32.09,-23.02 -13.4,-26.4 -36.38,-67.62 -104.91,-188.15 -344.13,-49.27 -497.5,19.09 -380.66,169.65 -829.2,277.15 -1241.17,367.93 -263.03,57.96 -534.87,48.53 -535.92,277.03 -0.53,112.67 78.42,204.16 188.15,209.28 138.59,6.47 851.3,-171.52 997.81,-212.02 212.81,-58.82 414.31,-118.37 608.87,-192.45 86.39,-32.89 416.95,-161.26 468.63,-230.28l29.62 -49.71c14.88,-20.22 -4.43,-3.22 17.89,-19.54z"/>
   <path class="fil0" d="M142.87 6189.94l0 95.75c34.89,23.03 8.03,4.08 27.56,51.51 83.87,203.79 312.05,81.73 414.53,38.32l511.47 -188.08c170.14,-52.93 360.67,-111.62 543.93,-150.67 174.33,-37.17 425.04,-65.95 434.07,-261.32 4.48,-96.71 -69.21,-178.41 -135.64,-204.67 -33.6,-13.29 -99.29,-17.29 -144.9,-6.61 -274.26,64.25 -693.46,176.36 -949.26,267.37 -87.56,31.17 -180.29,56.62 -266.5,91.66 -81.85,33.27 -157.94,67.02 -246.51,99 -166.06,59.97 -140.14,134.42 -188.75,167.74z"/>
   <path class="fil0" d="M10142.87 4028.35l0 -96.01c-26.96,-16.45 -39.49,-139.03 -169.69,-163.51 -99.05,-18.63 -355.98,118.2 -493.49,169.31 -272.99,101.47 -474.73,164.47 -762.12,236.04 -185.67,46.25 -415.57,51.09 -422.55,257.63 -3.7,109.34 50.99,171.28 131.3,205.59 120.19,51.32 655.87,-131.42 810.42,-170.13 201.25,-50.42 526.76,-186.95 723.54,-273.89 149.85,-66.21 126.44,-88.19 171.23,-151.01l11.36 -14.02z"/>
  </g>
 </g>
</svg>
